<mxfile host="app.diagrams.net" agent="Mozilla/5.0 (Macintosh; Intel Mac OS X 10_15_7) AppleWebKit/537.36 (KHTML, like Gecko) Chrome/136.0.0.0 Safari/537.36" version="27.0.6">
  <diagram name="Pagina-1" id="Wbp9bP24TJyQQNcweRA9">
    <mxGraphModel dx="676" dy="460" grid="1" gridSize="10" guides="1" tooltips="1" connect="1" arrows="1" fold="1" page="1" pageScale="1" pageWidth="827" pageHeight="1169" math="0" shadow="0">
      <root>
        <mxCell id="0" />
        <mxCell id="1" parent="0" />
        <mxCell id="2hnE0mgxjzDdHYYT4eih-5" style="rounded=0;orthogonalLoop=1;jettySize=auto;html=1;exitX=1;exitY=0;exitDx=0;exitDy=0;entryX=0;entryY=0.5;entryDx=0;entryDy=0;endArrow=none;startFill=0;" edge="1" parent="1" source="2hnE0mgxjzDdHYYT4eih-7" target="2hnE0mgxjzDdHYYT4eih-42">
          <mxGeometry relative="1" as="geometry" />
        </mxCell>
        <mxCell id="2hnE0mgxjzDdHYYT4eih-6" style="rounded=0;orthogonalLoop=1;jettySize=auto;html=1;exitX=0.5;exitY=0;exitDx=0;exitDy=0;entryX=0.5;entryY=1;entryDx=0;entryDy=0;endArrow=none;startFill=0;" edge="1" parent="1" source="2hnE0mgxjzDdHYYT4eih-7" target="2hnE0mgxjzDdHYYT4eih-39">
          <mxGeometry relative="1" as="geometry" />
        </mxCell>
        <mxCell id="2hnE0mgxjzDdHYYT4eih-7" value="" style="ellipse;whiteSpace=wrap;html=1;aspect=fixed;fillColor=#FFFFFF;" vertex="1" parent="1">
          <mxGeometry x="510" y="608" width="14" height="14" as="geometry" />
        </mxCell>
        <mxCell id="2hnE0mgxjzDdHYYT4eih-10" style="rounded=0;orthogonalLoop=1;jettySize=auto;html=1;exitX=0;exitY=1;exitDx=0;exitDy=0;entryX=0.5;entryY=0;entryDx=0;entryDy=0;endArrow=none;startFill=0;" edge="1" parent="1" source="2hnE0mgxjzDdHYYT4eih-11" target="2hnE0mgxjzDdHYYT4eih-48">
          <mxGeometry relative="1" as="geometry" />
        </mxCell>
        <mxCell id="2hnE0mgxjzDdHYYT4eih-11" value="" style="ellipse;whiteSpace=wrap;html=1;aspect=fixed;fillColor=#FFFFFF;" vertex="1" parent="1">
          <mxGeometry x="316" y="698" width="14" height="14" as="geometry" />
        </mxCell>
        <mxCell id="2hnE0mgxjzDdHYYT4eih-13" value="Allergy" style="text;html=1;align=center;verticalAlign=middle;resizable=0;points=[];autosize=1;strokeColor=none;fillColor=none;" vertex="1" parent="1">
          <mxGeometry x="256" y="692" width="60" height="30" as="geometry" />
        </mxCell>
        <mxCell id="2hnE0mgxjzDdHYYT4eih-14" style="rounded=0;orthogonalLoop=1;jettySize=auto;html=1;exitX=0.5;exitY=0;exitDx=0;exitDy=0;entryX=1;entryY=1;entryDx=0;entryDy=0;endArrow=none;startFill=0;" edge="1" parent="1" source="2hnE0mgxjzDdHYYT4eih-15" target="2hnE0mgxjzDdHYYT4eih-11">
          <mxGeometry relative="1" as="geometry" />
        </mxCell>
        <mxCell id="2hnE0mgxjzDdHYYT4eih-15" value="" style="ellipse;whiteSpace=wrap;html=1;aspect=fixed;fillColor=#FFFFFF;" vertex="1" parent="1">
          <mxGeometry x="360" y="770" width="14" height="14" as="geometry" />
        </mxCell>
        <mxCell id="2hnE0mgxjzDdHYYT4eih-16" value="Description" style="text;html=1;align=center;verticalAlign=middle;resizable=0;points=[];autosize=1;strokeColor=none;fillColor=none;" vertex="1" parent="1">
          <mxGeometry x="334" y="774" width="80" height="30" as="geometry" />
        </mxCell>
        <mxCell id="2hnE0mgxjzDdHYYT4eih-17" value="Condition" style="text;html=1;align=center;verticalAlign=middle;resizable=0;points=[];autosize=1;strokeColor=none;fillColor=none;" vertex="1" parent="1">
          <mxGeometry x="170" y="578" width="70" height="30" as="geometry" />
        </mxCell>
        <mxCell id="2hnE0mgxjzDdHYYT4eih-21" value="Encounter" style="text;html=1;align=center;verticalAlign=middle;resizable=0;points=[];autosize=1;strokeColor=none;fillColor=none;" vertex="1" parent="1">
          <mxGeometry x="430" y="585" width="80" height="30" as="geometry" />
        </mxCell>
        <mxCell id="2hnE0mgxjzDdHYYT4eih-22" style="edgeStyle=orthogonalEdgeStyle;rounded=0;orthogonalLoop=1;jettySize=auto;html=1;exitX=1;exitY=0.5;exitDx=0;exitDy=0;entryX=0;entryY=0.5;entryDx=0;entryDy=0;endArrow=none;startFill=0;" edge="1" parent="1" source="2hnE0mgxjzDdHYYT4eih-23" target="2hnE0mgxjzDdHYYT4eih-30">
          <mxGeometry relative="1" as="geometry" />
        </mxCell>
        <mxCell id="2hnE0mgxjzDdHYYT4eih-23" value="" style="ellipse;whiteSpace=wrap;html=1;aspect=fixed;fillColor=#FFFFFF;" vertex="1" parent="1">
          <mxGeometry x="592" y="646" width="14" height="14" as="geometry" />
        </mxCell>
        <mxCell id="2hnE0mgxjzDdHYYT4eih-24" value="Id_City" style="text;html=1;align=center;verticalAlign=middle;resizable=0;points=[];autosize=1;strokeColor=none;fillColor=none;" vertex="1" parent="1">
          <mxGeometry x="569" y="616" width="60" height="30" as="geometry" />
        </mxCell>
        <mxCell id="2hnE0mgxjzDdHYYT4eih-25" style="edgeStyle=orthogonalEdgeStyle;rounded=0;orthogonalLoop=1;jettySize=auto;html=1;entryX=0.5;entryY=1;entryDx=0;entryDy=0;endArrow=none;startFill=0;" edge="1" parent="1" source="2hnE0mgxjzDdHYYT4eih-26" target="2hnE0mgxjzDdHYYT4eih-23">
          <mxGeometry relative="1" as="geometry" />
        </mxCell>
        <mxCell id="2hnE0mgxjzDdHYYT4eih-26" value="" style="ellipse;whiteSpace=wrap;html=1;aspect=fixed;fillColor=#FFFFFF;" vertex="1" parent="1">
          <mxGeometry x="592" y="682" width="14" height="14" as="geometry" />
        </mxCell>
        <mxCell id="2hnE0mgxjzDdHYYT4eih-27" value="Name" style="text;html=1;align=center;verticalAlign=middle;resizable=0;points=[];autosize=1;strokeColor=none;fillColor=none;" vertex="1" parent="1">
          <mxGeometry x="569" y="690" width="60" height="30" as="geometry" />
        </mxCell>
        <mxCell id="2hnE0mgxjzDdHYYT4eih-28" style="edgeStyle=orthogonalEdgeStyle;rounded=0;orthogonalLoop=1;jettySize=auto;html=1;exitX=0.5;exitY=1;exitDx=0;exitDy=0;entryX=0.5;entryY=0;entryDx=0;entryDy=0;endArrow=none;startFill=0;" edge="1" parent="1" source="2hnE0mgxjzDdHYYT4eih-30" target="2hnE0mgxjzDdHYYT4eih-32">
          <mxGeometry relative="1" as="geometry" />
        </mxCell>
        <mxCell id="2hnE0mgxjzDdHYYT4eih-29" style="edgeStyle=orthogonalEdgeStyle;rounded=0;orthogonalLoop=1;jettySize=auto;html=1;exitX=1;exitY=0.5;exitDx=0;exitDy=0;entryX=0;entryY=0.5;entryDx=0;entryDy=0;endArrow=none;startFill=0;" edge="1" parent="1" source="2hnE0mgxjzDdHYYT4eih-30" target="2hnE0mgxjzDdHYYT4eih-35">
          <mxGeometry relative="1" as="geometry" />
        </mxCell>
        <mxCell id="2hnE0mgxjzDdHYYT4eih-30" value="" style="ellipse;whiteSpace=wrap;html=1;aspect=fixed;fillColor=#FFFFFF;" vertex="1" parent="1">
          <mxGeometry x="672" y="646" width="14" height="14" as="geometry" />
        </mxCell>
        <mxCell id="2hnE0mgxjzDdHYYT4eih-31" value="Id_County" style="text;html=1;align=center;verticalAlign=middle;resizable=0;points=[];autosize=1;strokeColor=none;fillColor=none;" vertex="1" parent="1">
          <mxGeometry x="639" y="618" width="80" height="30" as="geometry" />
        </mxCell>
        <mxCell id="2hnE0mgxjzDdHYYT4eih-32" value="" style="ellipse;whiteSpace=wrap;html=1;aspect=fixed;fillColor=#FFFFFF;" vertex="1" parent="1">
          <mxGeometry x="672" y="682" width="14" height="14" as="geometry" />
        </mxCell>
        <mxCell id="2hnE0mgxjzDdHYYT4eih-33" value="Name" style="text;html=1;align=center;verticalAlign=middle;resizable=0;points=[];autosize=1;strokeColor=none;fillColor=none;" vertex="1" parent="1">
          <mxGeometry x="649" y="692" width="60" height="30" as="geometry" />
        </mxCell>
        <mxCell id="2hnE0mgxjzDdHYYT4eih-34" style="edgeStyle=orthogonalEdgeStyle;rounded=0;orthogonalLoop=1;jettySize=auto;html=1;exitX=0.5;exitY=1;exitDx=0;exitDy=0;entryX=0.5;entryY=0;entryDx=0;entryDy=0;endArrow=none;startFill=0;" edge="1" parent="1" source="2hnE0mgxjzDdHYYT4eih-35" target="2hnE0mgxjzDdHYYT4eih-37">
          <mxGeometry relative="1" as="geometry" />
        </mxCell>
        <mxCell id="2hnE0mgxjzDdHYYT4eih-35" value="" style="ellipse;whiteSpace=wrap;html=1;aspect=fixed;fillColor=#FFFFFF;" vertex="1" parent="1">
          <mxGeometry x="742" y="646" width="14" height="14" as="geometry" />
        </mxCell>
        <mxCell id="2hnE0mgxjzDdHYYT4eih-36" value="Id_State" style="text;html=1;align=center;verticalAlign=middle;resizable=0;points=[];autosize=1;strokeColor=none;fillColor=none;" vertex="1" parent="1">
          <mxGeometry x="714" y="618" width="70" height="30" as="geometry" />
        </mxCell>
        <mxCell id="2hnE0mgxjzDdHYYT4eih-37" value="" style="ellipse;whiteSpace=wrap;html=1;aspect=fixed;fillColor=#FFFFFF;" vertex="1" parent="1">
          <mxGeometry x="742" y="682" width="14" height="14" as="geometry" />
        </mxCell>
        <mxCell id="2hnE0mgxjzDdHYYT4eih-38" value="Name" style="text;html=1;align=center;verticalAlign=middle;resizable=0;points=[];autosize=1;strokeColor=none;fillColor=none;" vertex="1" parent="1">
          <mxGeometry x="719" y="690" width="60" height="30" as="geometry" />
        </mxCell>
        <mxCell id="2hnE0mgxjzDdHYYT4eih-39" value="" style="ellipse;whiteSpace=wrap;html=1;aspect=fixed;fillColor=#FFFFFF;" vertex="1" parent="1">
          <mxGeometry x="510" y="528" width="14" height="14" as="geometry" />
        </mxCell>
        <mxCell id="2hnE0mgxjzDdHYYT4eih-40" value="Gender" style="text;html=1;align=center;verticalAlign=middle;resizable=0;points=[];autosize=1;strokeColor=none;fillColor=none;" vertex="1" parent="1">
          <mxGeometry x="487" y="498" width="60" height="30" as="geometry" />
        </mxCell>
        <mxCell id="2hnE0mgxjzDdHYYT4eih-41" style="edgeStyle=orthogonalEdgeStyle;rounded=0;orthogonalLoop=1;jettySize=auto;html=1;exitX=1;exitY=0.5;exitDx=0;exitDy=0;entryX=0;entryY=0.5;entryDx=0;entryDy=0;endArrow=none;startFill=0;" edge="1" parent="1" source="2hnE0mgxjzDdHYYT4eih-42" target="2hnE0mgxjzDdHYYT4eih-43">
          <mxGeometry relative="1" as="geometry" />
        </mxCell>
        <mxCell id="2hnE0mgxjzDdHYYT4eih-42" value="" style="ellipse;whiteSpace=wrap;html=1;aspect=fixed;fillColor=#FFFFFF;" vertex="1" parent="1">
          <mxGeometry x="592" y="582" width="14" height="14" as="geometry" />
        </mxCell>
        <mxCell id="2hnE0mgxjzDdHYYT4eih-43" value="" style="ellipse;whiteSpace=wrap;html=1;aspect=fixed;fillColor=#FFFFFF;" vertex="1" parent="1">
          <mxGeometry x="662" y="582" width="14" height="14" as="geometry" />
        </mxCell>
        <mxCell id="2hnE0mgxjzDdHYYT4eih-44" value="Id_Race" style="text;html=1;align=center;verticalAlign=middle;resizable=0;points=[];autosize=1;strokeColor=none;fillColor=none;" vertex="1" parent="1">
          <mxGeometry x="569" y="558" width="70" height="30" as="geometry" />
        </mxCell>
        <mxCell id="2hnE0mgxjzDdHYYT4eih-45" value="Name" style="text;html=1;align=center;verticalAlign=middle;resizable=0;points=[];autosize=1;strokeColor=none;fillColor=none;" vertex="1" parent="1">
          <mxGeometry x="639" y="558" width="60" height="30" as="geometry" />
        </mxCell>
        <mxCell id="2hnE0mgxjzDdHYYT4eih-48" value="" style="ellipse;whiteSpace=wrap;html=1;aspect=fixed;fillColor=#FFFFFF;" vertex="1" parent="1">
          <mxGeometry x="264" y="770" width="14" height="14" as="geometry" />
        </mxCell>
        <mxCell id="2hnE0mgxjzDdHYYT4eih-49" value="System" style="text;html=1;align=center;verticalAlign=middle;resizable=0;points=[];autosize=1;strokeColor=none;fillColor=none;" vertex="1" parent="1">
          <mxGeometry x="230" y="774" width="60" height="30" as="geometry" />
        </mxCell>
        <mxCell id="2hnE0mgxjzDdHYYT4eih-50" style="rounded=0;orthogonalLoop=1;jettySize=auto;html=1;exitX=1;exitY=1;exitDx=0;exitDy=0;entryX=0;entryY=0.5;entryDx=0;entryDy=0;endArrow=none;startFill=0;" edge="1" parent="1" source="2hnE0mgxjzDdHYYT4eih-7" target="2hnE0mgxjzDdHYYT4eih-23">
          <mxGeometry relative="1" as="geometry" />
        </mxCell>
        <mxCell id="2hnE0mgxjzDdHYYT4eih-51" value="Affected By" style="swimlane;fontStyle=0;childLayout=stackLayout;horizontal=1;startSize=30;horizontalStack=0;resizeParent=1;resizeParentMax=0;resizeLast=0;collapsible=1;marginBottom=0;whiteSpace=wrap;html=1;" vertex="1" parent="1">
          <mxGeometry x="274" y="570" width="140" height="60" as="geometry" />
        </mxCell>
        <mxCell id="2hnE0mgxjzDdHYYT4eih-52" value="Severity" style="text;strokeColor=none;fillColor=none;align=left;verticalAlign=middle;spacingLeft=4;spacingRight=4;overflow=hidden;points=[[0,0.5],[1,0.5]];portConstraint=eastwest;rotatable=0;whiteSpace=wrap;html=1;" vertex="1" parent="2hnE0mgxjzDdHYYT4eih-51">
          <mxGeometry y="30" width="140" height="30" as="geometry" />
        </mxCell>
        <mxCell id="2hnE0mgxjzDdHYYT4eih-59" style="edgeStyle=orthogonalEdgeStyle;rounded=0;orthogonalLoop=1;jettySize=auto;html=1;exitX=1;exitY=0.5;exitDx=0;exitDy=0;entryX=0;entryY=0.5;entryDx=0;entryDy=0;endArrow=none;startFill=0;" edge="1" parent="1" source="2hnE0mgxjzDdHYYT4eih-55" target="2hnE0mgxjzDdHYYT4eih-52">
          <mxGeometry relative="1" as="geometry" />
        </mxCell>
        <mxCell id="2hnE0mgxjzDdHYYT4eih-55" value="" style="ellipse;whiteSpace=wrap;html=1;aspect=fixed;fillColor=#FFFFFF;" vertex="1" parent="1">
          <mxGeometry x="173" y="608" width="14" height="14" as="geometry" />
        </mxCell>
        <mxCell id="2hnE0mgxjzDdHYYT4eih-56" style="edgeStyle=orthogonalEdgeStyle;rounded=0;orthogonalLoop=1;jettySize=auto;html=1;entryX=0;entryY=0.5;entryDx=0;entryDy=0;endArrow=none;startFill=0;" edge="1" parent="1" source="2hnE0mgxjzDdHYYT4eih-57" target="2hnE0mgxjzDdHYYT4eih-55">
          <mxGeometry relative="1" as="geometry" />
        </mxCell>
        <mxCell id="2hnE0mgxjzDdHYYT4eih-57" value="" style="ellipse;whiteSpace=wrap;html=1;aspect=fixed;fillColor=#FFFFFF;" vertex="1" parent="1">
          <mxGeometry x="103" y="608" width="14" height="14" as="geometry" />
        </mxCell>
        <mxCell id="2hnE0mgxjzDdHYYT4eih-58" value="Description" style="text;html=1;align=center;verticalAlign=middle;resizable=0;points=[];autosize=1;strokeColor=none;fillColor=none;" vertex="1" parent="1">
          <mxGeometry x="70" y="578" width="80" height="30" as="geometry" />
        </mxCell>
        <mxCell id="2hnE0mgxjzDdHYYT4eih-60" style="edgeStyle=orthogonalEdgeStyle;rounded=0;orthogonalLoop=1;jettySize=auto;html=1;exitX=0.5;exitY=0;exitDx=0;exitDy=0;entryX=0.35;entryY=0.999;entryDx=0;entryDy=0;entryPerimeter=0;endArrow=none;startFill=0;" edge="1" parent="1" source="2hnE0mgxjzDdHYYT4eih-11" target="2hnE0mgxjzDdHYYT4eih-52">
          <mxGeometry relative="1" as="geometry" />
        </mxCell>
        <mxCell id="2hnE0mgxjzDdHYYT4eih-61" style="edgeStyle=orthogonalEdgeStyle;rounded=0;orthogonalLoop=1;jettySize=auto;html=1;entryX=0;entryY=0.5;entryDx=0;entryDy=0;endArrow=none;startFill=0;" edge="1" parent="1" source="2hnE0mgxjzDdHYYT4eih-52" target="2hnE0mgxjzDdHYYT4eih-7">
          <mxGeometry relative="1" as="geometry" />
        </mxCell>
      </root>
    </mxGraphModel>
  </diagram>
</mxfile>
